<svg id="Layer_1" enable-background="new 0 0 256 256" height="512" viewBox="0 0 256 256" width="512" xmlns="http://www.w3.org/2000/svg"><path d="m178.694 230.5v-8.373-4.545-19.388c0-15.754-12.772-28.527-28.527-28.527h-8.203c-.019-.001-.038-.004-.057-.004l-.003.004h-57.613c-15.755 0-28.527 12.772-28.527 28.527v19.388 1.253 3.293 8.373h122.93z" fill="#a4c9ff"/><path d="m173.951 87.039c-.12 0-.237.015-.356.018v-5.278c0-30.849-25.236-55.857-56.365-55.857-31.13 0-56.365 25.008-56.365 55.857v5.278c-.12-.002-.236-.018-.356-.018-9.497 0-17.196 7.63-17.196 17.041 0 9.412 7.699 17.041 17.196 17.041.624 0 1.238-.037 1.845-.101 5.816 24.711 28.169 43.125 54.876 43.125 26.707 0 49.06-18.414 54.876-43.125.607.064 1.221.101 1.845.101 9.497 0 17.196-7.63 17.196-17.041s-7.699-17.041-17.196-17.041z" fill="#f9cfcf"/><path d="m117.229 166.146c-26.696 0-49.653-17.607-56.412-43.026-.104.002-.207.003-.31.003-10.585 0-19.196-8.542-19.196-19.042 0-9.95 7.734-18.143 17.553-18.972v-3.329c0-31.902 26.183-57.857 58.365-57.857s58.365 25.955 58.365 57.857v3.329c9.818.83 17.552 9.021 17.552 18.972 0 10.5-8.611 19.042-19.196 19.042-.103 0-.206-.001-.309-.003-6.758 25.418-29.716 43.026-56.412 43.026zm-54.875-47.125c.918 0 1.731.631 1.945 1.542 5.763 24.483 27.528 41.583 52.93 41.583s47.167-17.1 52.93-41.583c.23-.98 1.148-1.623 2.158-1.531.572.062 1.106.091 1.633.091 8.379 0 15.196-6.748 15.196-15.042 0-8.29-6.811-15.035-15.185-15.041-.152.011-.243.016-.334.018-.535.009-1.053-.198-1.436-.574-.382-.376-.597-.89-.597-1.426v-5.277c0-29.697-24.388-53.857-54.365-53.857s-54.365 24.16-54.365 53.857v5.277c0 .536-.215 1.05-.597 1.426s-.876.582-1.436.574c-.092-.002-.183-.007-.274-.014-.002 0-.005 0-.007 0-8.426 0-15.239 6.745-15.239 15.037 0 8.294 6.817 15.042 15.196 15.042.527 0 1.062-.029 1.634-.091.072-.008.143-.011.213-.011z" fill="#3762cc"/><path d="m184.487 77.567h-11.021c.108 1.39.164 2.794.164 4.212v5.278c.12-.002.236-.018.356-.018 4.453 0 8.498 1.692 11.552 4.444v-14.007c-.342.055-.692.091-1.051.091z" fill="#4671c6"/><path d="m105.444 77.476h-58.409c-2.057 0-3.724-1.667-3.724-3.724v-14.904c.001-28.082 22.766-50.848 50.849-50.848h27.11c7.712 0 13.964 6.252 13.964 13.964v25.723c0 16.452-13.338 29.789-29.79 29.789z" fill="#4671c6"/><path d="m187.423 77.476h-22.4c-16.452 0-29.79-13.337-29.79-29.79v-25.722c0-7.712 6.252-13.964 13.964-13.964 23.168 0 41.949 18.781 41.949 41.949v23.803c.001 2.057-1.666 3.724-3.723 3.724z" fill="#4671c6"/><path d="m49.127 77.476v13.699c3.011-2.572 6.923-4.137 11.21-4.137.12 0 .237.016.356.018v-5.278c0-1.45.071-2.882.185-4.303h-11.751z" fill="#4671c6"/><g fill="#3762cc"><path d="m185.54 93.483c-.485 0-.965-.177-1.339-.515-2.812-2.534-6.439-3.93-10.213-3.93-.141.011-.232.016-.324.018-.546.009-1.053-.198-1.436-.574-.382-.376-.597-.89-.597-1.426v-5.277c0-1.344-.053-2.708-.159-4.057-.043-.556.147-1.104.526-1.514s.911-.642 1.468-.642h11.021c.216 0 .451-.021.737-.066.578-.099 1.167.073 1.613.453.445.38.702.937.702 1.521v14.008c0 .79-.465 1.506-1.187 1.827-.261.118-.538.174-.812.174zm-9.91-8.374c2.795.238 5.49 1.085 7.909 2.47v-8.012h-7.953c.029.739.044 1.479.044 2.212z"/><path d="m105.444 79.476h-58.409c-3.156 0-5.724-2.567-5.724-5.724v-14.903c.001-29.141 23.709-52.849 52.849-52.849h27.11c8.802 0 15.963 7.161 15.963 15.964v25.723c0 17.528-14.26 31.789-31.789 31.789zm-11.284-69.476c-26.935 0-48.849 21.913-48.849 48.849v14.903c0 .95.773 1.724 1.724 1.724h58.409c15.323 0 27.789-12.466 27.789-27.789v-25.723c0-6.597-5.367-11.964-11.963-11.964z"/><path d="m187.423 79.476h-22.4c-17.529 0-31.79-14.261-31.79-31.789v-25.723c0-8.803 7.161-15.964 15.964-15.964 24.234 0 43.95 19.716 43.95 43.949v23.803c0 3.156-2.567 5.724-5.724 5.724zm-38.225-69.476c-6.597 0-11.964 5.367-11.964 11.964v25.723c0 15.323 12.466 27.789 27.79 27.789h22.4c.95 0 1.724-.773 1.724-1.724v-23.803c-.001-22.028-17.922-39.949-39.95-39.949z"/><path d="m49.126 93.175c-.284 0-.569-.061-.837-.184-.708-.327-1.163-1.036-1.163-1.816v-13.699c0-1.104.896-2 2-2h11.752c.558 0 1.091.233 1.47.644.378.41.568.96.524 1.516-.121 1.506-.179 2.861-.179 4.145v5.277c0 .536-.215 1.05-.597 1.426s-.875.582-1.436.574c-.092-.002-.183-.007-.274-.014-.005 0-.011 0-.017 0-3.673 0-7.187 1.298-9.944 3.653-.369.314-.832.478-1.299.478zm2-13.699v7.909c2.331-1.269 4.908-2.047 7.566-2.275v-3.33c0-.744.018-1.508.054-2.304z"/></g><path d="m117.229 164.145c-9.21 0-17.902-2.191-25.577-6.074v10.344c0 11.99 9.72 21.709 21.709 21.709h7.72c11.99 0 21.709-9.72 21.709-21.709v-10.336c-7.67 3.878-16.356 6.066-25.561 6.066z" fill="#f9cfcf"/><path d="m178.694 232.5h-122.929c-1.104 0-2-.896-2-2v-32.306c0-16.832 13.694-30.526 30.527-30.526h5.361v-9.597c0-.695.361-1.34.953-1.704.592-.363 1.33-.396 1.95-.08 7.685 3.887 15.986 5.858 24.674 5.858 8.683 0 16.979-1.969 24.66-5.852.619-.313 1.358-.283 1.95.082.592.363.952 1.009.952 1.703v9.589h5.375c16.833 0 30.527 13.694 30.527 30.526v32.307c0 1.104-.896 2-2 2zm-120.929-4h118.929v-30.306c0-14.627-11.9-26.526-26.527-26.526h-7.438c-.55 0-1.076-.227-1.454-.627s-.574-.938-.542-1.487l.024-.375c.018-.253.036-.507.036-.765v-7.18c-7.419 3.261-15.33 4.911-23.563 4.911-8.238 0-16.153-1.652-23.577-4.918v7.187c0 .26.019.516.036.771l.023.369c.032.549-.165 1.087-.542 1.487s-.904.627-1.454.627h-7.424c-14.627 0-26.527 11.899-26.527 26.526z" fill="#3762cc"/><circle cx="179.466" cy="214.778" fill="#6bdddd" r="33.222"/><path d="m179.466 239.5c-13.632 0-24.722-11.09-24.722-24.722s11.09-24.722 24.722-24.722 24.723 11.09 24.723 24.722-11.091 24.722-24.723 24.722z" fill="#ffea92"/><path d="m194.61 209.535h-8.737c-.643 0-1.165-.522-1.165-1.165v-8.737c0-.643-.522-1.165-1.165-1.165h-8.155c-.643 0-1.165.522-1.165 1.165v8.737c0 .643-.522 1.165-1.165 1.165h-8.737c-.643 0-1.165.522-1.165 1.165v8.155c0 .643.522 1.165 1.165 1.165h8.737c.643 0 1.165.522 1.165 1.165v8.737c0 .643.522 1.165 1.165 1.165h8.155c.643 0 1.165-.522 1.165-1.165v-8.737c0-.643.522-1.165 1.165-1.165h8.737c.643 0 1.165-.522 1.165-1.165v-8.155c0-.643-.521-1.165-1.165-1.165z" fill="#f9a7a7"/><path d="m179.466 250c-19.421 0-35.222-15.801-35.222-35.223s15.801-35.223 35.222-35.223c19.422 0 35.223 15.801 35.223 35.223s-15.801 35.223-35.223 35.223zm0-66.445c-17.216 0-31.222 14.007-31.222 31.223s14.006 31.222 31.222 31.222 31.223-14.007 31.223-31.223-14.007-31.222-31.223-31.222z" fill="#3762cc"/></svg>